<?xml version="1.0" encoding="iso-8859-1"?>
<!-- Generator: Adobe Illustrator 24.0.0, SVG Export Plug-In . SVG Version: 6.00 Build 0)  -->
<svg version="1.1" id="&#x56FE;&#x5C42;_1" xmlns="http://www.w3.org/2000/svg" xmlns:xlink="http://www.w3.org/1999/xlink" x="0px"
	 y="0px" viewBox="0 0 50 50" style="enable-background:new 0 0 50 50;" xml:space="preserve">
<g>
	<path style="fill:#FFFFFF;" d="M27.378,44.794c-0.217-1.163-0.443-2.22-0.609-3.286c-0.648-4.164-0.777-8.335-0.06-12.505
		c0.601-3.495,1.788-6.753,3.947-9.61c0.109-0.144,0.201-0.313,0.34-0.419c0.154-0.117,0.366-0.258,0.528-0.232
		c0.121,0.019,0.261,0.276,0.292,0.445c0.212,1.185,0.107,2.353-0.238,3.505c-0.402,1.344-0.656,2.713-0.643,4.121
		c0.016,1.883,0.738,2.452,2.516,1.824c1.278-0.452,2.543-0.998,3.721-1.665c1.994-1.129,3.152-2.978,3.917-5.082
		c0.813-2.235,1.1-4.548,0.986-6.926c-0.028-0.583,0.169-1.184,0.318-1.762c0.043-0.165,0.283-0.28,0.433-0.417
		c0.123,0.158,0.297,0.298,0.361,0.477c1.383,3.838,1.479,7.707,0.217,11.594c-0.655,2.019-1.661,3.862-2.978,5.521
		c-3.894,4.906-8.029,9.597-12.535,13.953C27.755,44.463,27.608,44.587,27.378,44.794z"/>
	<path style="fill:#FFFFFF;" d="M22.581,44.765c-0.274-0.258-0.489-0.456-0.698-0.659c-4.397-4.282-8.49-8.843-12.251-13.687
		c-3.93-5.062-4.906-10.705-2.936-16.829c0.035-0.109,0.054-0.235,0.122-0.32c0.106-0.132,0.25-0.33,0.372-0.327
		c0.156,0.004,0.414,0.158,0.444,0.289c0.14,0.614,0.322,1.247,0.297,1.865c-0.107,2.687,0.28,5.275,1.38,7.736
		c0.968,2.166,2.468,3.829,4.688,4.762c1.012,0.425,2.025,0.869,3.075,1.174c1.22,0.354,1.859-0.153,1.964-1.41
		c0.131-1.563-0.141-3.079-0.581-4.567c-0.331-1.12-0.46-2.253-0.295-3.408c0.033-0.231,0.217-0.44,0.332-0.659
		c0.21,0.124,0.479,0.201,0.621,0.379c2.201,2.761,3.459,5.946,4.092,9.385c0.986,5.349,0.65,10.663-0.53,15.944
		C22.659,44.511,22.633,44.587,22.581,44.765z"/>
	<path style="fill:#FFFFFF;" d="M25.002,11.671c0.082-0.164,0.159-0.319,0.237-0.474c0.927-1.847,2.124-3.475,3.847-4.661
		c2.861-1.969,6.195-1.735,8.725,0.6c0.976,0.901,1.739,1.967,2.368,3.129c0.302,0.557,0.562,1.137,0.742,1.767
		c-0.136-0.188-0.271-0.376-0.409-0.563c-2.045-2.763-5.098-3.87-8.143-2.943c-1.474,0.449-2.655,1.347-3.68,2.466
		c-1.553,1.694-2.632,3.677-3.483,5.795c-0.067,0.166-0.134,0.333-0.237,0.59c-0.094-0.23-0.159-0.385-0.221-0.541
		c-0.876-2.184-2.006-4.212-3.694-5.883c-3.089-3.057-7.058-3.194-10.34-0.343c-0.641,0.556-1.197,1.21-1.79,1.816
		c0.012,0.014-0.021-0.012-0.017-0.021c0.8-1.818,1.808-3.502,3.227-4.911c2.502-2.484,5.536-2.815,8.524-0.931
		c1.803,1.137,3.061,2.756,4.029,4.625c0.068,0.131,0.132,0.264,0.202,0.394C24.904,11.607,24.939,11.622,25.002,11.671z"/>
	<path style="fill:#FFFFFF;" d="M39.883,22.606c0.111-0.347,0.291-0.688,0.319-1.041c0.114-1.438,0.199-2.879,0.258-4.32
		c0.023-0.575,0.192-1.062,0.591-1.464c0.078-0.079,0.231-0.134,0.336-0.118c0.066,0.01,0.151,0.172,0.155,0.27
		c0.183,3.762-0.779,7.089-3.696,9.665c-0.032,0.028-0.084,0.033-0.071,0.028c0.115-1.356,0.239-2.726,0.345-4.097
		c0.044-0.564,0.319-0.994,0.722-1.353c0.325-0.29,0.578-0.203,0.645,0.242c0.107,0.712,0.174,1.429,0.259,2.144
		C39.792,22.577,39.838,22.592,39.883,22.606z"/>
	<path style="fill:#FFFFFF;" d="M10.274,22.578c0.052-0.517,0.103-1.034,0.158-1.55c0.019-0.179,0.036-0.361,0.077-0.536
		c0.108-0.46,0.449-0.593,0.724-0.23c0.285,0.377,0.577,0.83,0.637,1.281c0.179,1.346,0.246,2.706,0.361,4.111
		c-0.141-0.125-0.294-0.25-0.436-0.388c-2.448-2.366-3.388-5.317-3.349-8.647c0.002-0.181-0.014-0.367,0.025-0.54
		c0.032-0.143,0.131-0.271,0.2-0.405c0.134,0.076,0.341,0.12,0.389,0.232c0.189,0.44,0.424,0.894,0.465,1.358
		c0.117,1.322,0.122,2.654,0.224,3.978c0.035,0.458,0.225,0.905,0.344,1.357C10.153,22.592,10.213,22.585,10.274,22.578z"/>
</g>
</svg>
