<?xml version="1.0" encoding="iso-8859-1"?>
<!-- Generator: Adobe Illustrator 24.0.0, SVG Export Plug-In . SVG Version: 6.00 Build 0)  -->
<svg version="1.1" id="&#x56FE;&#x5C42;_1" xmlns="http://www.w3.org/2000/svg" xmlns:xlink="http://www.w3.org/1999/xlink" x="0px"
	 y="0px" viewBox="0 0 50 50" style="enable-background:new 0 0 50 50;" xml:space="preserve">
<g>
	<g>
		<path style="fill:#FFFFFF;" d="M38.152,19.886H26.383l-3.862,6.125c-0.287,0.455-0.78,0.727-1.318,0.727H8.924v12.828
			c0.21-0.194,0.418-0.387,0.625-0.578c2.042-1.886,4.087-3.769,6.126-5.658c0.469-0.435,1.004-0.608,1.615-0.406
			c0.63,0.209,0.983,0.684,1.1,1.326c0.197,1.079,0.38,2.161,0.569,3.242c0.011,0.064,0.027,0.126,0.045,0.207
			c0.608-0.584,1.195-1.147,1.78-1.711c0.426-0.41,0.847-0.827,1.28-1.229l2.295-2.21l-1.798-1.921
			c-0.333-0.356-0.156-0.939,0.319-1.049l8.758-2.04c0.475-0.111,0.891,0.334,0.749,0.801l-2.613,8.605
			c-0.142,0.466-0.735,0.604-1.068,0.249l-1.836-1.961c-1.176,1.025-2.352,2.049-3.532,3.07c-1.431,1.238-2.868,2.469-4.308,3.697
			c-0.464,0.395-1.009,0.494-1.579,0.307c-0.587-0.192-0.932-0.621-1.039-1.235c-0.195-1.117-0.39-2.234-0.585-3.352
			c-0.011-0.065-0.026-0.13-0.045-0.228c-0.133,0.121-0.245,0.223-0.357,0.327c-2.032,1.875-4.063,3.752-6.097,5.624
			c0.509,0.865,1.449,1.451,2.52,1.451h26.303c1.609,0,2.925-1.316,2.925-2.925V22.811C41.076,21.202,39.76,19.886,38.152,19.886z"
			/>
		<path style="fill:#FFFFFF;" d="M21.756,25.529l3.558-5.643H11.848c-1.609,0-2.925,1.316-2.925,2.925v3.023h12.279
			C21.429,25.834,21.635,25.72,21.756,25.529z M12.102,24.21c-0.878,0-1.59-0.712-1.59-1.59c0-0.878,0.712-1.59,1.59-1.59
			c0.878,0,1.59,0.712,1.59,1.59C13.692,23.498,12.98,24.21,12.102,24.21z"/>
	</g>
	<path style="fill:#FFFFFF;" d="M17.042,18.749c0.002-0.586,0.006-1.148-0.003-1.709c-0.035-2.289,0.762-4.25,2.406-5.824
		c2.314-2.215,5.073-2.851,8.087-1.839c3.055,1.027,4.855,3.246,5.34,6.445c0.144,0.947,0.163,1.914,0.214,2.926h3.664
		c0.009-0.026,0.015-0.051,0.016-0.073c0.013-1.243,0.089-2.518-0.141-3.727C35.032,6.568,26.085,2.49,18.795,6.916
		c-4.117,2.5-6.054,6.822-5.509,11.832H17.042z"/>
</g>
</svg>
