<?xml version="1.0" encoding="iso-8859-1"?>
<!-- Generator: Adobe Illustrator 24.0.0, SVG Export Plug-In . SVG Version: 6.00 Build 0)  -->
<svg version="1.1" id="&#x56FE;&#x5C42;_1" xmlns="http://www.w3.org/2000/svg" xmlns:xlink="http://www.w3.org/1999/xlink" x="0px"
	 y="0px" viewBox="0 0 50 50" style="enable-background:new 0 0 50 50;" xml:space="preserve">
<linearGradient id="SVGID_1_" gradientUnits="userSpaceOnUse" x1="25" y1="4.8099" x2="25" y2="45.1901">
	<stop  offset="0" style="stop-color:#F39800"/>
	<stop  offset="1" style="stop-color:#F9BC2D"/>
</linearGradient>
<path style="fill:url(#SVGID_1_);" d="M27.431,45.05c-1.033,0.138-2.077,0.174-3.116,0.109c-5.085-0.318-9.139-1.065-12.785-3.435
	C3.536,36.528,3.64,25.195,11.726,20.17c1.266-0.787,1.9-2.284,1.519-3.725c-0.381-1.444-0.731-2.901-0.988-4.372
	c-0.709-4.063,2.108-7.599,5.828-7.167c1.068,0.124,2.238,0.73,3.046,1.463c2.129,1.934,2.636,4.62,2.899,7.352
	c0.058,0.602,0.021,1.23,0.19,1.798c0.077,0.259,0.306,0.472,0.53,0.687c0.143,0.137,0.367,0.143,0.516,0.012
	c0.254-0.224,0.523-0.446,0.569-0.707c0.27-1.543,0.298-3.135,0.643-4.657c0.37-1.63,0.771-3.297,2.119-4.512
	c1.652-1.489,3.521-1.925,5.596-1.165c2.002,0.733,3.036,2.318,3.396,4.353c0.413,2.331-0.159,4.558-0.815,6.772
	c-0.715,2.413-0.731,2.458,1.378,3.765c7.523,4.66,7.557,13.246,3.779,18.37c-2.143,2.906-5.147,4.68-8.556,5.565
	C31.265,44.549,29.084,44.829,27.431,45.05z M16.394,28.079c-0.104,0.624-0.114,1.261-0.005,1.884
	c0.016,0.091,0.034,0.181,0.054,0.27c0.22,0.947,0.724,1.621,1.792,1.613c1.047-0.008,1.707-0.667,1.823-1.595
	c0.125-0.998,0.132-2.103-0.188-3.03c-0.183-0.531-1.085-1.189-1.728-1.138c-0.846,0.067-1.4,0.48-1.608,1.304
	C16.477,27.617,16.432,27.849,16.394,28.079z M33.544,29.985c0.105-0.697,0.101-1.405-0.004-2.102
	c-0.012-0.082-0.025-0.164-0.037-0.246c-0.143-0.944-0.662-1.594-1.623-1.655c-0.951-0.061-1.662,0.501-1.851,1.407
	c-0.183,0.88-0.262,1.831-0.132,2.713c0.149,1.018,0.829,1.818,1.95,1.791c1.104-0.027,1.54-0.871,1.691-1.87
	C33.54,30.01,33.542,29.998,33.544,29.985z"/>
</svg>
