<?xml version="1.0" encoding="iso-8859-1"?>
<!-- Generator: Adobe Illustrator 24.0.0, SVG Export Plug-In . SVG Version: 6.00 Build 0)  -->
<svg version="1.1" id="&#x56FE;&#x5C42;_1" xmlns="http://www.w3.org/2000/svg" xmlns:xlink="http://www.w3.org/1999/xlink" x="0px"
	 y="0px" viewBox="0 0 50 50" style="enable-background:new 0 0 50 50;" xml:space="preserve">
<g>
	<path style="fill:#FFFFFF;" d="M192.127-13.004c-0.217-1.163-0.443-2.22-0.609-3.286c-0.648-4.164-0.777-8.335-0.06-12.505
		c0.601-3.495,1.788-6.753,3.947-9.61c0.109-0.144,0.201-0.313,0.34-0.419c0.154-0.117,0.366-0.258,0.528-0.232
		c0.121,0.019,0.261,0.276,0.292,0.445c0.212,1.185,0.107,2.353-0.238,3.505c-0.402,1.344-0.656,2.713-0.644,4.121
		c0.016,1.883,0.738,2.452,2.516,1.824c1.278-0.452,2.543-0.998,3.721-1.665c1.994-1.129,3.152-2.978,3.917-5.082
		c0.813-2.235,1.1-4.548,0.986-6.926c-0.028-0.583,0.169-1.184,0.318-1.762c0.043-0.165,0.283-0.28,0.433-0.417
		c0.123,0.158,0.297,0.298,0.361,0.477c1.383,3.838,1.479,7.707,0.217,11.594c-0.655,2.019-1.661,3.862-2.978,5.521
		c-3.894,4.906-8.029,9.597-12.535,13.953C192.503-13.335,192.356-13.211,192.127-13.004z"/>
	<path style="fill:#FFFFFF;" d="M187.329-13.033c-0.274-0.258-0.489-0.456-0.698-0.659c-4.397-4.282-8.49-8.843-12.251-13.687
		c-3.93-5.062-4.906-10.705-2.936-16.829c0.035-0.109,0.054-0.235,0.122-0.32c0.105-0.132,0.25-0.33,0.372-0.327
		c0.156,0.004,0.414,0.158,0.444,0.289c0.14,0.614,0.322,1.247,0.297,1.865c-0.107,2.687,0.28,5.275,1.38,7.736
		c0.968,2.166,2.468,3.829,4.688,4.762c1.012,0.425,2.025,0.869,3.075,1.174c1.22,0.354,1.859-0.153,1.964-1.41
		c0.131-1.563-0.141-3.079-0.581-4.567c-0.331-1.12-0.46-2.253-0.295-3.408c0.033-0.231,0.217-0.44,0.332-0.659
		c0.21,0.124,0.479,0.201,0.621,0.379c2.201,2.761,3.459,5.946,4.092,9.385c0.986,5.349,0.65,10.663-0.53,15.944
		C187.408-13.287,187.381-13.211,187.329-13.033z"/>
	<path style="fill:#FFFFFF;" d="M189.75-46.127c0.082-0.164,0.159-0.319,0.237-0.474c0.927-1.847,2.124-3.475,3.847-4.661
		c2.861-1.969,6.195-1.735,8.725,0.6c0.976,0.901,1.739,1.967,2.368,3.129c0.302,0.557,0.562,1.137,0.742,1.767
		c-0.136-0.188-0.271-0.376-0.409-0.563c-2.045-2.763-5.098-3.87-8.143-2.943c-1.474,0.449-2.655,1.347-3.68,2.466
		c-1.553,1.694-2.632,3.677-3.483,5.795c-0.067,0.166-0.134,0.333-0.237,0.59c-0.094-0.23-0.159-0.385-0.221-0.541
		c-0.876-2.184-2.006-4.212-3.694-5.883c-3.089-3.057-7.058-3.194-10.34-0.343c-0.641,0.556-1.197,1.21-1.79,1.816
		c0.012,0.014-0.021-0.012-0.017-0.021c0.8-1.818,1.808-3.502,3.227-4.911c2.502-2.484,5.536-2.815,8.524-0.931
		c1.803,1.137,3.061,2.756,4.029,4.625c0.068,0.131,0.132,0.264,0.202,0.394C189.652-46.191,189.687-46.176,189.75-46.127z"/>
	<path style="fill:#FFFFFF;" d="M204.632-35.192c0.111-0.347,0.291-0.688,0.319-1.041c0.114-1.438,0.199-2.879,0.258-4.32
		c0.023-0.575,0.192-1.062,0.591-1.464c0.078-0.079,0.231-0.134,0.336-0.118c0.066,0.01,0.151,0.172,0.155,0.27
		c0.183,3.762-0.779,7.089-3.696,9.665c-0.032,0.028-0.084,0.033-0.071,0.028c0.115-1.356,0.239-2.726,0.345-4.097
		c0.044-0.564,0.319-0.994,0.722-1.353c0.325-0.29,0.578-0.203,0.645,0.242c0.107,0.712,0.174,1.429,0.259,2.144
		C204.541-35.221,204.586-35.206,204.632-35.192z"/>
	<path style="fill:#FFFFFF;" d="M175.022-35.22c0.052-0.517,0.103-1.034,0.158-1.55c0.019-0.179,0.036-0.361,0.077-0.536
		c0.108-0.46,0.449-0.593,0.724-0.23c0.285,0.377,0.577,0.83,0.637,1.281c0.179,1.346,0.246,2.706,0.361,4.111
		c-0.141-0.125-0.294-0.25-0.436-0.388c-2.448-2.366-3.388-5.317-3.349-8.647c0.002-0.181-0.014-0.367,0.025-0.54
		c0.032-0.143,0.131-0.271,0.2-0.405c0.134,0.076,0.341,0.12,0.389,0.232c0.189,0.44,0.424,0.894,0.465,1.358
		c0.117,1.322,0.122,2.654,0.224,3.978c0.035,0.458,0.225,0.905,0.344,1.357C174.902-35.206,174.962-35.213,175.022-35.22z"/>
</g>
<g>
	<linearGradient id="SVGID_1_" gradientUnits="userSpaceOnUse" x1="202.2089" y1="44.7938" x2="202.2089" y2="12.7844">
		<stop  offset="0" style="stop-color:#E61673"/>
		<stop  offset="1" style="stop-color:#F39800"/>
	</linearGradient>
	<path style="fill:url(#SVGID_1_);" d="M194.328,44.794c-0.217-1.163-0.443-2.22-0.609-3.286c-0.648-4.164-0.777-8.335-0.06-12.505
		c0.601-3.495,1.788-6.753,3.947-9.61c0.109-0.144,0.201-0.313,0.34-0.419c0.154-0.117,0.366-0.258,0.528-0.232
		c0.121,0.019,0.261,0.276,0.292,0.445c0.212,1.185,0.107,2.353-0.238,3.505c-0.402,1.344-0.656,2.713-0.643,4.121
		c0.016,1.883,0.738,2.452,2.516,1.824c1.278-0.452,2.543-0.998,3.721-1.665c1.994-1.129,3.152-2.978,3.917-5.082
		c0.813-2.235,1.1-4.548,0.986-6.926c-0.028-0.583,0.169-1.184,0.318-1.762c0.043-0.165,0.283-0.28,0.433-0.417
		c0.123,0.158,0.297,0.298,0.361,0.477c1.383,3.838,1.479,7.707,0.217,11.594c-0.655,2.019-1.661,3.862-2.978,5.521
		c-3.894,4.906-8.029,9.597-12.535,13.953C194.705,44.463,194.558,44.587,194.328,44.794z"/>
	<linearGradient id="SVGID_2_" gradientUnits="userSpaceOnUse" x1="181.6967" y1="44.7649" x2="181.6967" y2="12.9426">
		<stop  offset="0" style="stop-color:#E61673"/>
		<stop  offset="1" style="stop-color:#F39800"/>
	</linearGradient>
	<path style="fill:url(#SVGID_2_);" d="M189.531,44.765c-0.274-0.258-0.489-0.456-0.698-0.659
		c-4.397-4.282-8.49-8.843-12.251-13.687c-3.93-5.062-4.906-10.705-2.936-16.829c0.035-0.109,0.054-0.235,0.122-0.32
		c0.105-0.132,0.25-0.33,0.372-0.327c0.156,0.004,0.414,0.158,0.444,0.289c0.14,0.614,0.322,1.247,0.297,1.865
		c-0.107,2.687,0.28,5.275,1.38,7.736c0.968,2.166,2.468,3.829,4.688,4.762c1.012,0.425,2.025,0.869,3.075,1.174
		c1.22,0.354,1.859-0.153,1.964-1.41c0.131-1.563-0.141-3.079-0.581-4.567c-0.331-1.12-0.46-2.253-0.295-3.408
		c0.033-0.231,0.217-0.44,0.332-0.659c0.21,0.124,0.479,0.201,0.621,0.379c2.201,2.761,3.459,5.946,4.092,9.385
		c0.986,5.349,0.65,10.663-0.53,15.944C189.61,44.511,189.583,44.587,189.531,44.765z"/>
	<linearGradient id="SVGID_3_" gradientUnits="userSpaceOnUse" x1="191.8646" y1="17.376" x2="191.8646" y2="5.2062">
		<stop  offset="0" style="stop-color:#E61673"/>
		<stop  offset="1" style="stop-color:#F39800"/>
	</linearGradient>
	<path style="fill:url(#SVGID_3_);" d="M191.952,11.671c0.082-0.164,0.159-0.319,0.237-0.474c0.927-1.847,2.124-3.475,3.847-4.661
		c2.861-1.969,6.195-1.735,8.725,0.6c0.976,0.901,1.739,1.967,2.368,3.129c0.302,0.557,0.562,1.137,0.742,1.767
		c-0.136-0.188-0.271-0.376-0.409-0.563c-2.045-2.763-5.098-3.87-8.143-2.943c-1.474,0.449-2.655,1.347-3.68,2.466
		c-1.553,1.694-2.632,3.677-3.483,5.795c-0.067,0.166-0.134,0.333-0.237,0.59c-0.094-0.23-0.159-0.385-0.221-0.541
		c-0.876-2.184-2.006-4.212-3.694-5.883c-3.089-3.057-7.058-3.194-10.34-0.343c-0.641,0.556-1.197,1.21-1.79,1.816
		c0.012,0.014-0.021-0.012-0.017-0.021c0.8-1.818,1.808-3.502,3.227-4.911c2.502-2.484,5.536-2.815,8.524-0.931
		c1.803,1.137,3.061,2.756,4.029,4.625c0.068,0.131,0.132,0.264,0.202,0.394C191.854,11.607,191.889,11.622,191.952,11.671z"/>
	<linearGradient id="SVGID_4_" gradientUnits="userSpaceOnUse" x1="206.619" y1="25.6279" x2="206.619" y2="15.6601">
		<stop  offset="0" style="stop-color:#E61673"/>
		<stop  offset="1" style="stop-color:#F39800"/>
	</linearGradient>
	<path style="fill:url(#SVGID_4_);" d="M206.834,22.606c0.111-0.347,0.291-0.688,0.319-1.041c0.114-1.438,0.199-2.879,0.258-4.32
		c0.023-0.575,0.192-1.062,0.591-1.464c0.078-0.079,0.231-0.134,0.336-0.118c0.066,0.01,0.151,0.172,0.155,0.27
		c0.183,3.762-0.779,7.089-3.696,9.665c-0.032,0.028-0.084,0.033-0.071,0.028c0.115-1.356,0.239-2.726,0.345-4.097
		c0.044-0.564,0.319-0.994,0.722-1.353c0.325-0.29,0.578-0.203,0.645,0.242c0.107,0.712,0.174,1.429,0.259,2.144
		C206.743,22.577,206.788,22.592,206.834,22.606z"/>
	<linearGradient id="SVGID_5_" gradientUnits="userSpaceOnUse" x1="177.2878" y1="25.6545" x2="177.2878" y2="15.6746">
		<stop  offset="0" style="stop-color:#E61673"/>
		<stop  offset="1" style="stop-color:#F39800"/>
	</linearGradient>
	<path style="fill:url(#SVGID_5_);" d="M177.224,22.578c0.052-0.517,0.103-1.034,0.158-1.55c0.019-0.179,0.036-0.361,0.077-0.536
		c0.108-0.46,0.449-0.593,0.724-0.23c0.285,0.377,0.577,0.83,0.637,1.281c0.179,1.346,0.246,2.706,0.361,4.111
		c-0.141-0.125-0.294-0.25-0.436-0.388c-2.448-2.366-3.388-5.317-3.349-8.647c0.002-0.181-0.014-0.367,0.025-0.54
		c0.032-0.143,0.131-0.271,0.2-0.405c0.134,0.076,0.341,0.12,0.389,0.232c0.189,0.44,0.424,0.894,0.465,1.358
		c0.117,1.322,0.122,2.654,0.224,3.978c0.035,0.458,0.225,0.905,0.344,1.357C177.103,22.592,177.164,22.585,177.224,22.578z"/>
</g>
<g>
	<g>
		<path style="fill:#FFFFFF;" d="M259.524-39.563h-11.769l-3.862,6.125c-0.287,0.455-0.78,0.727-1.318,0.727h-12.279v12.828
			c0.21-0.194,0.418-0.387,0.625-0.578c2.042-1.886,4.087-3.769,6.126-5.658c0.469-0.435,1.004-0.608,1.615-0.406
			c0.63,0.209,0.983,0.684,1.1,1.326c0.197,1.079,0.38,2.161,0.569,3.242c0.011,0.064,0.027,0.126,0.045,0.207
			c0.608-0.584,1.195-1.147,1.78-1.711c0.426-0.41,0.847-0.827,1.28-1.229l2.295-2.21l-1.798-1.921
			c-0.333-0.356-0.156-0.939,0.319-1.049l8.758-2.04c0.475-0.111,0.891,0.334,0.749,0.801l-2.613,8.605
			c-0.142,0.466-0.735,0.604-1.068,0.249l-1.836-1.961c-1.176,1.025-2.352,2.049-3.532,3.07c-1.431,1.238-2.868,2.469-4.308,3.697
			c-0.464,0.395-1.009,0.494-1.579,0.307c-0.587-0.192-0.932-0.621-1.039-1.235c-0.195-1.117-0.39-2.234-0.585-3.352
			c-0.011-0.065-0.026-0.13-0.045-0.228c-0.133,0.121-0.245,0.223-0.357,0.327c-2.032,1.875-4.063,3.752-6.097,5.624
			c0.509,0.865,1.449,1.451,2.52,1.451h26.303c1.609,0,2.925-1.316,2.925-2.925v-19.158
			C262.448-38.247,261.132-39.563,259.524-39.563z"/>
		<path style="fill:#FFFFFF;" d="M243.128-33.92l3.558-5.643H233.22c-1.609,0-2.925,1.316-2.925,2.925v3.023h12.279
			C242.801-33.616,243.007-33.73,243.128-33.92z M233.473-35.24c-0.878,0-1.59-0.712-1.59-1.59c0-0.878,0.712-1.59,1.59-1.59
			c0.878,0,1.59,0.712,1.59,1.59C235.064-35.952,234.352-35.24,233.473-35.24z"/>
	</g>
	<path style="fill:#FFFFFF;" d="M238.414-40.701c0.002-0.586,0.006-1.148-0.003-1.709c-0.035-2.289,0.762-4.25,2.406-5.824
		c2.314-2.215,5.073-2.851,8.087-1.839c3.055,1.027,4.855,3.246,5.34,6.445c0.144,0.947,0.163,1.914,0.214,2.926h3.664
		c0.009-0.026,0.015-0.051,0.016-0.073c0.013-1.243,0.089-2.518-0.141-3.727c-1.594-8.38-10.541-12.458-17.831-8.032
		c-4.117,2.5-6.054,6.822-5.509,11.832H238.414z"/>
</g>
<g>
	<g>
		<linearGradient id="SVGID_6_" gradientUnits="userSpaceOnUse" x1="248.1181" y1="44.8938" x2="248.1181" y2="19.8863">
			<stop  offset="0" style="stop-color:#00A0E9"/>
			<stop  offset="1" style="stop-color:#8FC31F"/>
		</linearGradient>
		<path style="fill:url(#SVGID_6_);" d="M261.27,19.886h-11.769l-3.862,6.125c-0.287,0.455-0.78,0.727-1.318,0.727h-12.279v12.828
			c0.21-0.194,0.418-0.387,0.625-0.578c2.042-1.886,4.087-3.769,6.126-5.658c0.469-0.435,1.004-0.608,1.615-0.406
			c0.63,0.209,0.983,0.684,1.1,1.326c0.197,1.079,0.38,2.161,0.569,3.242c0.011,0.064,0.027,0.126,0.045,0.207
			c0.608-0.584,1.195-1.147,1.78-1.711c0.426-0.41,0.847-0.827,1.28-1.229l2.295-2.21l-1.798-1.921
			c-0.333-0.356-0.156-0.939,0.319-1.049l8.758-2.04c0.475-0.111,0.891,0.334,0.749,0.801l-2.613,8.605
			c-0.142,0.466-0.735,0.604-1.068,0.249l-1.836-1.961c-1.176,1.025-2.352,2.049-3.532,3.07c-1.431,1.238-2.868,2.469-4.308,3.697
			c-0.464,0.395-1.009,0.494-1.579,0.307c-0.587-0.192-0.932-0.621-1.039-1.235c-0.195-1.117-0.39-2.234-0.585-3.352
			c-0.011-0.065-0.026-0.13-0.045-0.228c-0.133,0.121-0.245,0.223-0.357,0.327c-2.032,1.875-4.063,3.752-6.097,5.624
			c0.509,0.865,1.449,1.451,2.52,1.451h26.303c1.609,0,2.925-1.316,2.925-2.925V22.811C264.194,21.202,262.878,19.886,261.27,19.886
			z"/>
		<linearGradient id="SVGID_7_" gradientUnits="userSpaceOnUse" x1="240.237" y1="25.8339" x2="240.237" y2="19.8863">
			<stop  offset="0" style="stop-color:#00A0E9"/>
			<stop  offset="1" style="stop-color:#8FC31F"/>
		</linearGradient>
		<path style="fill:url(#SVGID_7_);" d="M244.874,25.529l3.558-5.643h-13.466c-1.609,0-2.925,1.316-2.925,2.925v3.023h12.279
			C244.547,25.834,244.754,25.72,244.874,25.529z M235.22,24.21c-0.878,0-1.59-0.712-1.59-1.59c0-0.878,0.712-1.59,1.59-1.59
			c0.878,0,1.59,0.712,1.59,1.59C236.81,23.498,236.098,24.21,235.22,24.21z"/>
	</g>
	<linearGradient id="SVGID_8_" gradientUnits="userSpaceOnUse" x1="248.1107" y1="18.7486" x2="248.1107" y2="5.1062">
		<stop  offset="0" style="stop-color:#00A0E9"/>
		<stop  offset="1" style="stop-color:#8FC31F"/>
	</linearGradient>
	<path style="fill:url(#SVGID_8_);" d="M240.16,18.749c0.002-0.586,0.006-1.148-0.003-1.709c-0.035-2.289,0.762-4.25,2.406-5.824
		c2.314-2.215,5.073-2.851,8.087-1.839c3.055,1.027,4.855,3.246,5.34,6.445c0.144,0.947,0.163,1.914,0.214,2.926h3.664
		c0.009-0.026,0.015-0.051,0.016-0.073c0.013-1.243,0.089-2.518-0.141-3.727c-1.594-8.38-10.541-12.458-17.831-8.032
		c-4.117,2.5-6.054,6.822-5.509,11.832H240.16z"/>
</g>
<path style="fill:#FFFFFF;" d="M27.431,45.05c-1.033,0.138-2.077,0.174-3.116,0.109c-5.085-0.318-9.139-1.065-12.785-3.435
	C3.536,36.528,3.64,25.195,11.726,20.17c1.266-0.787,1.9-2.284,1.519-3.725c-0.381-1.444-0.731-2.901-0.988-4.372
	c-0.709-4.063,2.108-7.599,5.828-7.167c1.068,0.124,2.238,0.73,3.046,1.463c2.129,1.934,2.636,4.62,2.899,7.352
	c0.058,0.602,0.021,1.23,0.19,1.798c0.077,0.259,0.306,0.472,0.53,0.687c0.143,0.137,0.367,0.143,0.516,0.012
	c0.254-0.224,0.523-0.446,0.569-0.707c0.27-1.543,0.298-3.135,0.643-4.657c0.37-1.63,0.771-3.297,2.119-4.512
	c1.652-1.489,3.521-1.925,5.596-1.165c2.002,0.733,3.036,2.318,3.396,4.353c0.413,2.331-0.159,4.558-0.815,6.772
	c-0.715,2.413-0.731,2.458,1.378,3.765c7.523,4.66,7.557,13.246,3.779,18.37c-2.143,2.906-5.147,4.68-8.556,5.565
	C31.265,44.549,29.084,44.829,27.431,45.05z M16.394,28.079c-0.104,0.624-0.114,1.261-0.005,1.884
	c0.016,0.091,0.034,0.181,0.054,0.27c0.22,0.947,0.724,1.621,1.792,1.613c1.047-0.008,1.707-0.667,1.823-1.595
	c0.125-0.998,0.132-2.103-0.188-3.03c-0.183-0.531-1.085-1.189-1.728-1.138c-0.846,0.067-1.4,0.48-1.608,1.304
	C16.477,27.617,16.432,27.849,16.394,28.079z M33.544,29.985c0.105-0.697,0.101-1.405-0.004-2.102
	c-0.012-0.082-0.025-0.164-0.037-0.246c-0.143-0.944-0.662-1.594-1.623-1.655c-0.951-0.061-1.662,0.501-1.851,1.407
	c-0.183,0.88-0.262,1.831-0.132,2.713c0.149,1.018,0.829,1.818,1.95,1.791c1.104-0.027,1.54-0.871,1.691-1.87
	C33.54,30.01,33.542,29.998,33.544,29.985z"/>
<linearGradient id="SVGID_9_" gradientUnits="userSpaceOnUse" x1="137.4507" y1="4.8099" x2="137.4507" y2="45.1901">
	<stop  offset="0" style="stop-color:#F39800"/>
	<stop  offset="1" style="stop-color:#F9BC2D"/>
</linearGradient>
<path style="fill:url(#SVGID_9_);" d="M139.881,45.05c-1.033,0.138-2.077,0.174-3.116,0.109c-5.085-0.318-9.139-1.065-12.785-3.435
	c-7.993-5.195-7.889-16.529,0.197-21.554c1.266-0.787,1.9-2.284,1.519-3.725c-0.381-1.444-0.731-2.901-0.988-4.372
	c-0.709-4.063,2.108-7.599,5.828-7.167c1.068,0.124,2.238,0.73,3.046,1.463c2.129,1.934,2.636,4.62,2.899,7.352
	c0.058,0.602,0.021,1.23,0.19,1.798c0.077,0.259,0.306,0.472,0.53,0.687c0.143,0.137,0.367,0.143,0.516,0.012
	c0.254-0.224,0.523-0.446,0.569-0.707c0.27-1.543,0.298-3.135,0.643-4.657c0.37-1.63,0.771-3.297,2.119-4.512
	c1.652-1.489,3.521-1.925,5.596-1.165c2.002,0.733,3.036,2.318,3.396,4.353c0.413,2.331-0.159,4.558-0.815,6.772
	c-0.715,2.413-0.731,2.458,1.378,3.765c7.523,4.66,7.557,13.246,3.779,18.37c-2.143,2.906-5.147,4.68-8.556,5.565
	C143.715,44.549,141.535,44.829,139.881,45.05z M128.845,28.079c-0.104,0.624-0.114,1.261-0.005,1.884
	c0.016,0.091,0.034,0.181,0.054,0.27c0.22,0.947,0.724,1.621,1.792,1.613c1.047-0.008,1.707-0.667,1.823-1.595
	c0.125-0.998,0.132-2.103-0.188-3.03c-0.183-0.531-1.085-1.189-1.728-1.138c-0.846,0.067-1.4,0.48-1.608,1.304
	C128.928,27.617,128.883,27.849,128.845,28.079z M145.994,29.985c0.105-0.697,0.101-1.405-0.004-2.102
	c-0.012-0.082-0.025-0.164-0.037-0.246c-0.143-0.944-0.662-1.594-1.623-1.655c-0.951-0.061-1.662,0.501-1.851,1.407
	c-0.183,0.88-0.262,1.831-0.132,2.713c0.149,1.018,0.829,1.818,1.95,1.791c1.104-0.027,1.54-0.871,1.691-1.87
	C145.991,30.01,145.993,29.998,145.994,29.985z"/>
</svg>
